<svg width="109" height="37" viewBox="0 0 109 37" fill="none" xmlns="http://www.w3.org/2000/svg">
<path d="M100.496 12.8534H98.264L97.8361 14.0359H97.3168L99.1064 9.12129H99.6607L101.444 14.0359H100.924L100.496 12.8534ZM100.349 12.4403L99.3802 9.74819L98.4115 12.4403H100.349Z" fill="#0F4FCC"/>
<path d="M102.76 13.9146C102.514 13.8005 102.321 13.6418 102.181 13.4373C102.04 13.2333 101.966 13.0054 101.956 12.7537H102.476C102.499 12.9961 102.604 13.2084 102.792 13.3913C102.979 13.5742 103.252 13.6652 103.613 13.6652C103.945 13.6652 104.208 13.5786 104.402 13.4055C104.597 13.2319 104.694 13.0126 104.694 12.7467C104.694 12.533 104.64 12.3608 104.532 12.2302C104.424 12.0996 104.291 12.0023 104.132 11.9384C103.973 11.8742 103.753 11.8038 103.473 11.7281C103.145 11.6382 102.885 11.5499 102.693 11.4646C102.502 11.3791 102.338 11.2462 102.202 11.0659C102.066 10.8853 101.999 10.6409 101.999 10.3321C101.999 10.0758 102.064 9.84671 102.195 9.64456C102.326 9.44287 102.511 9.2851 102.749 9.17125C102.988 9.05739 103.262 9 103.571 9C104.024 9 104.391 9.11293 104.669 9.33854C104.947 9.56416 105.107 9.85484 105.15 10.211H104.616C104.583 10.007 104.473 9.82533 104.286 9.66617C104.099 9.507 103.846 9.4273 103.528 9.4273C103.234 9.4273 102.988 9.507 102.791 9.66617C102.595 9.82533 102.496 10.0426 102.496 10.3177C102.496 10.5268 102.55 10.6953 102.658 10.8235C102.766 10.9518 102.9 11.0491 103.061 11.1156C103.223 11.1821 103.442 11.2532 103.718 11.3294C104.036 11.4193 104.293 11.5088 104.49 11.5963C104.686 11.6842 104.852 11.8182 104.988 11.9986C105.124 12.1791 105.192 12.4212 105.192 12.7251C105.192 12.9577 105.131 13.1787 105.009 13.3874C104.887 13.5965 104.707 13.7649 104.469 13.8932C104.23 14.0215 103.944 14.0856 103.612 14.0856C103.289 14.0856 103.005 14.0284 102.76 13.9143L102.76 13.9146Z" fill="#0F4FCC"/>
<path d="M108.905 9.05716V9.47029H107.543V14.0359H107.052V9.47029H105.683V9.05716H108.905Z" fill="#0F4FCC"/>
<path d="M70.9155 23.0104H62.7543C62.8214 23.828 63.1037 24.4691 63.6008 24.9324C64.0977 25.3962 64.709 25.6279 65.4344 25.6279C66.4123 25.6279 67.1269 25.2301 67.5782 24.4345C67.6387 24.3281 67.7465 24.2577 67.8674 24.2577H70.7138C70.3914 25.3486 69.7734 26.2448 68.86 26.9467C67.9462 27.6489 66.8247 28 65.4946 28C64.4196 28 63.4561 27.7581 62.6032 27.2739C61.7498 26.7904 61.0846 26.1051 60.6081 25.2189C60.131 24.3327 59.8926 23.3104 59.8926 22.1514C59.8926 20.9791 60.1275 19.95 60.5981 19.0636C61.0681 18.1776 61.7264 17.4961 62.5727 17.0188C63.4192 16.5418 64.3928 16.3032 65.4946 16.3032C66.7643 16.3032 67.8759 16.635 68.8287 17.2984C69.2216 17.5719 69.5717 17.9088 69.8618 18.2922C70.6181 19.2913 70.9959 20.4961 70.9959 21.9062C70.9959 22.3152 70.9688 22.683 70.9153 23.0104H70.9155ZM68.0742 21.0881C68.0607 20.3518 67.7987 19.7625 67.2884 19.3194C66.7778 18.8765 66.1529 18.6549 65.414 18.6549C64.7157 18.6549 64.1279 18.8696 63.6509 19.2987C63.1738 19.7284 62.8816 20.3248 62.7744 21.0881H68.0742Z" fill="#0F4FCC"/>
<path d="M74.5628 27.499C73.8372 27.1651 73.2629 26.7118 72.8398 26.1391C72.4164 25.5665 72.1849 24.9324 72.1446 24.2375H74.9862C75.0393 24.6738 75.2511 25.0349 75.6206 25.3212C75.99 25.6077 76.45 25.7508 77.0011 25.7508C77.5383 25.7508 77.9582 25.6418 78.2604 25.4234C78.5627 25.2057 78.7138 24.9262 78.7138 24.5851C78.7138 24.217 78.529 23.9412 78.1599 23.7572C77.7901 23.5729 77.2028 23.3722 76.3966 23.1537C75.5636 22.949 74.8817 22.7381 74.3512 22.5199C73.8202 22.3019 73.3637 21.9676 72.9808 21.5177C72.5982 21.0679 72.4066 20.4612 72.4066 19.6979C72.4066 19.071 72.5847 18.4985 72.9405 17.9801C73.2963 17.4619 73.807 17.053 74.4723 16.753C75.1373 16.4531 75.9194 16.3032 76.82 16.3032C78.1498 16.3032 79.2109 16.6403 80.0038 17.3151C80.7965 17.9901 81.2329 18.9 81.3135 20.0451H78.6133C78.573 19.5952 78.3882 19.2374 78.0589 18.9716C77.7295 18.7058 77.2898 18.5728 76.7392 18.5728C76.2285 18.5728 75.8356 18.6683 75.5604 18.8593C75.285 19.0501 75.1471 19.3159 75.1471 19.6568C75.1471 20.0385 75.3351 20.3283 75.7113 20.5256C76.0875 20.7233 76.6716 20.9243 77.4645 21.129C78.2703 21.3337 78.9352 21.5451 79.4596 21.7629C79.9834 21.9813 80.4368 22.3187 80.8196 22.775C81.2025 23.2321 81.4005 23.8355 81.4143 24.5848C81.4143 25.2391 81.2359 25.8256 80.8801 26.3435C80.524 26.8617 80.0137 27.2674 79.3487 27.5604C78.6838 27.8534 77.908 28 77.0212 28C76.1077 28 75.2882 27.8327 74.563 27.499H74.5628Z" fill="#0F4FCC"/>
<path d="M85.4845 17.8572V24.7893C85.4845 25.4713 85.6122 25.9416 85.8673 26.2002C86.1224 26.4595 86.5725 26.5887 87.2173 26.5887H88.5071V27.8157H86.9957C86.0015 27.8157 85.2626 27.5804 84.779 27.1103C84.2954 26.6398 84.0534 25.8663 84.0534 24.7893V17.8572H82.522V16.6506H84.0534V13.8493H85.4842V16.6506H88.5071V17.8572H85.4842H85.4845Z" fill="#0F4FCC"/>
<path d="M90.5523 19.1965C91.0022 18.331 91.6268 17.6627 92.4262 17.1926C93.2253 16.7221 94.1288 16.4872 95.1363 16.4872C96.1845 16.4872 97.0878 16.7324 97.8468 17.2231C98.6056 17.7141 99.1531 18.341 99.4892 19.1045V16.6506H100.9V27.816H99.4892V25.3416C99.1396 26.1051 98.5853 26.7355 97.8265 27.2332C97.0674 27.7309 96.1641 27.9793 95.1164 27.9793C94.1222 27.9793 93.2253 27.7409 92.4262 27.2637C91.6268 26.7866 91.0022 26.1119 90.5523 25.2391C90.1019 24.3671 89.877 23.358 89.877 22.2129C89.877 21.0679 90.1019 20.0625 90.5523 19.1965ZM98.945 19.861C98.5823 19.1795 98.0884 18.6546 97.464 18.2866C96.8394 17.9183 96.1506 17.7343 95.3984 17.7343C94.6193 17.7343 93.9207 17.9118 93.3029 18.2659C92.6849 18.6205 92.1977 19.1351 91.8421 19.8097C91.486 20.4844 91.3079 21.2854 91.3079 22.2125C91.3079 23.1259 91.486 23.927 91.8421 24.615C92.1977 25.3035 92.6847 25.8286 93.3029 26.1897C93.9207 26.551 94.6195 26.7316 95.3984 26.7316C96.1508 26.7316 96.8396 26.5475 97.464 26.1797C98.0886 25.8114 98.5825 25.287 98.945 24.605C99.3077 23.9235 99.4892 23.1326 99.4892 22.2329C99.4892 21.3332 99.3077 20.543 98.945 19.861Z" fill="#0F4FCC"/>
<path d="M106.652 17.0188C107.291 16.6371 108.073 16.4463 109 16.4463V17.9392H108.617C107.596 17.9392 106.777 18.2187 106.159 18.7776C105.541 19.3366 105.232 20.2704 105.232 21.5788V27.816H103.821V16.6506H105.232V18.6342C105.541 17.9392 106.014 17.4006 106.652 17.0188Z" fill="#0F4FCC"/>
<path d="M58.3979 20.6713L58.3993 20.665H51.7923V22.7622C51.7923 22.976 51.9629 23.1491 52.1735 23.1491H54.4525C54.2421 23.4388 54.0555 23.6252 53.8121 23.842C53.0521 24.5186 52.1889 24.8432 51.1443 24.8432C50.0095 24.8432 48.913 24.3583 48.1359 23.513C47.3487 22.6565 46.9594 21.5398 47.0398 20.3687C47.1824 18.2889 48.8022 16.608 50.9563 16.4977C52.1747 16.4321 53.3053 17.1125 53.7745 17.445C53.8148 17.4701 53.9907 17.5907 54.0486 17.6188C54.7563 17.9627 55.7256 17.9406 56.4191 17.1427C56.671 16.8434 56.7896 16.5474 56.8434 16.3631C56.8764 16.2504 56.851 16.1294 56.777 16.039C54.5473 13.3137 51.6808 13.3225 50.8057 13.366C47.8416 13.5333 44.9976 15.5885 44.212 18.8921C44.2775 18.6168 44.0201 19.6122 44.002 20.4217C43.9929 20.8311 44.0149 21.2315 44.0643 21.6237C44.0712 21.6839 44.0787 21.7436 44.0872 21.8028V21.8031C44.3345 23.5343 45.2664 24.8853 45.6976 25.3797C46.9516 26.7771 48.1393 27.5873 50.3553 27.9252C53.113 28.3457 55.8401 26.9597 57.3893 24.3955L57.7707 23.6621C58.0611 23.0422 58.3022 21.9741 58.3448 21.5124C58.4075 21.0409 58.399 20.717 58.3974 20.6708L58.3979 20.6713ZM44.0355 21.2877V21.2882V21.2877ZM54.3751 23.3598C54.4133 23.2885 54.4481 23.2181 54.4786 23.1491C54.4484 23.2181 54.4133 23.2885 54.3751 23.3598Z" fill="#0F4FCC"/>
<path d="M20.3445 13.7583H35.4961C35.9027 13.7583 36.2326 14.0876 36.2326 14.4933V16.5711H19.6079V14.4933C19.6079 14.0876 19.9379 13.7583 20.3445 13.7583Z" fill="url(#paint0_linear_128_220)"/>
<path d="M36.2327 18.0835H19.6079V23.2731C19.6079 23.8018 20.0373 24.2303 20.5672 24.2303H26.3669C25.893 25.2887 24.9851 26.5017 24.2699 27.3068C23.4786 28.1187 20.9762 30.7723 16.7871 31.6259C12.0913 32.6242 7.1492 31.1119 3.75855 27.5312C2.91346 26.636 0.493606 23.7033 0.0894775 19.6245C0.372809 24.5143 3.08189 28.4078 4.27242 29.7504C7.42786 33.2081 10.4168 35.2127 15.9926 36.0486C22.932 37.0891 29.7941 33.6596 33.6923 27.3151L34.6522 25.5006C35.3829 23.9669 35.9896 21.3241 36.0969 20.1814C36.2548 19.0147 36.2337 18.2133 36.2295 18.0992L36.2327 18.0835Z" fill="url(#paint1_linear_128_220)"/>
<path d="M21.1382 21.7167V22.1871C21.1382 22.4747 21.3638 22.7079 21.6422 22.7079H23.1659C23.4444 22.7079 23.67 22.4747 23.67 22.1871V21.7167C23.67 21.429 23.4444 21.1958 23.1659 21.1958H21.6422C21.3638 21.1958 21.1382 21.429 21.1382 21.7167Z" fill="#F9CE3F"/>
<path d="M0.0894365 19.6244C0.493564 23.7032 2.91342 26.6356 3.75851 27.5311C7.14915 31.112 12.0915 32.6244 16.7871 31.6257C20.9764 30.7722 23.4785 28.1186 24.2698 27.3066C24.985 26.5016 25.893 25.2888 26.3666 24.2302H26.3013C25.7719 24.9468 25.3025 25.4084 24.6897 25.9447C22.7773 27.6188 20.6052 28.4224 17.9771 28.4224C15.1215 28.4224 12.3623 27.2228 10.4072 25.131C8.4266 23.012 7.44697 20.2489 7.64928 17.3511C8.00823 12.2048 12.0839 8.04573 17.5043 7.77255C20.8409 7.59615 23.9183 9.60686 24.8701 10.3134C24.8301 10.2728 24.274 9.80507 24.2369 9.76146C22.6229 7.86393 22.1822 7.53147 20.7365 6.45274C17.9182 4.35015 13.5523 3.65312 10.0495 4.56428C6.25889 5.45118 2.08528 8.56782 0.533584 13.6976C0.699066 13.0131 0.0511352 15.478 0.0054682 17.4819C-0.0212936 18.6496 0.0501531 19.7898 0.220299 20.9009C0.159656 20.4839 0.114725 20.0583 0.0894365 19.6244Z" fill="url(#paint2_linear_128_220)"/>
<path d="M17.1254 0.0234795C9.66672 0.437039 2.51026 5.52275 0.533569 13.6977C2.08526 8.56785 6.25888 5.45121 10.0495 4.56455C13.5523 3.6534 17.9182 4.35042 20.7365 6.45301C22.1068 7.47515 22.5558 7.86593 23.9732 9.51943C24.3378 9.94475 24.7793 10.3054 25.2853 10.5472C27.0661 11.3978 29.5051 11.3432 31.2502 9.369C31.8842 8.62861 32.1822 7.89631 32.318 7.44012C32.401 7.16106 32.3369 6.86167 32.1508 6.63774C26.5402 -0.10588 19.3272 -0.0838304 17.1254 0.0234795Z" fill="url(#paint3_linear_128_220)"/>
<defs>
<linearGradient id="paint0_linear_128_220" x1="20.4518" y1="15.1648" x2="36.8916" y2="15.1648" gradientUnits="userSpaceOnUse">
<stop stop-color="#6DC2F0"/>
<stop offset="0.129" stop-color="#63B8EE"/>
<stop offset="0.343" stop-color="#4B9FEC"/>
<stop offset="0.471" stop-color="#3A8DEA"/>
<stop offset="0.572" stop-color="#2F7DE2"/>
<stop offset="0.865" stop-color="#0F4FCC"/>
<stop offset="0.994" stop-color="#0A2FAD"/>
</linearGradient>
<linearGradient id="paint1_linear_128_220" x1="15.7609" y1="18.206" x2="26.8662" y2="32.4242" gradientUnits="userSpaceOnUse">
<stop stop-color="#6DC4F1"/>
<stop offset="0.416" stop-color="#3A8DEA"/>
<stop offset="0.519" stop-color="#3485E6"/>
<stop offset="0.675" stop-color="#2670DC"/>
<stop offset="0.863" stop-color="#0F4FCC"/>
<stop offset="0.865" stop-color="#0F4FCC"/>
<stop offset="0.994" stop-color="#0A2FAD"/>
</linearGradient>
<linearGradient id="paint2_linear_128_220" x1="13.1836" y1="37.0113" x2="13.1836" y2="9.03283" gradientUnits="userSpaceOnUse">
<stop stop-color="#6DC2F0"/>
<stop offset="0.156" stop-color="#63B8EE"/>
<stop offset="0.414" stop-color="#4B9FEC"/>
<stop offset="0.567" stop-color="#3A8DEA"/>
<stop offset="0.865" stop-color="#0F4FCC"/>
<stop offset="0.994" stop-color="#0A2FAD"/>
</linearGradient>
<linearGradient id="paint3_linear_128_220" x1="3.54047" y1="14.345" x2="31.5438" y2="0.372879" gradientUnits="userSpaceOnUse">
<stop stop-color="#6FC1ED"/>
<stop offset="0.156" stop-color="#65B7EC"/>
<stop offset="0.414" stop-color="#4C9EEB"/>
<stop offset="0.567" stop-color="#3A8DEA"/>
<stop offset="0.865" stop-color="#0F4FCC"/>
<stop offset="0.994" stop-color="#0A2FAD"/>
</linearGradient>
</defs>
</svg>
